<svg width="64" height="64" fill="none" xmlns="http://www.w3.org/2000/svg">
  <path d="M64 32c0 14-2.4 22.2-8.2 26.8-5 4-12.8 5.2-23.8 5.2-12.6 0-20.8-1.6-25.8-7.2C1.8 52 0 44.2 0 32 0 19 2 11 7 6.4 12 1.6 20 0 32 0c11.8 0 19.8 1.4 24.8 6.2C62 10.8 64 18.8 64 32z" fill="#00CEAB"/>
  <path d="M40.8 13.4c-.2 0-.6 0-.8-.2-.8-.2-1.6-.8-2-1.4-.8-1.6-.4-3.4 1.2-4.4.8-.4 1.6-.6 2.4-.4.8.2 1.6.8 2 1.4.4.6.6 1.6.4 2.4-.2.8-.8 1.6-1.4 2-.6.4-1.2.6-1.8.6zm0-4.6c-.2 0-.4 0-.8.2-.6.4-1 1.2-.6 2 .4.6 1.2 1 2 .6.6-.4 1-1.2.6-2-.2-.6-.6-.8-1.2-.8zM23.2 57c-.2 0-.6 0-.8-.2-.8-.2-1.6-.8-2-1.4-.4-.8-.6-1.6-.4-2.4.2-.8.8-1.6 1.4-2 .8-.4 1.6-.6 2.4-.4.8.2 1.6.8 2 1.4.4.6.6 1.6.4 2.4-.2.8-.8 1.6-1.4 2-.6.4-1.2.6-1.6.6zm0-4.6c-.2 0-.4 0-.8.2-.6.4-1 1.2-.6 2 .4.6 1.2 1 2 .6.6-.4 1-1.2.6-2-.2-.6-.8-.8-1.2-.8z" fill="#05DDB3"/>
  <path d="M39.175 12.233L23.358 51.142l1.667.678 15.818-38.91-1.668-.677zM53.8 44c-.2 0-.6 0-.8-.2-.8-.2-1.6-.8-2-1.4-.4-.6-.6-1.6-.4-2.4.2-.8.8-1.6 1.4-2 .8-.4 1.6-.6 2.4-.4.8.2 1.6.8 2 1.4.4.6.6 1.6.4 2.4-.2.8-.8 1.6-1.4 2-.4.4-1 .6-1.6.6zm0-4.6c-.2 0-.4 0-.8.2s-.6.6-.6.8c0 .4 0 .8.2 1 .4.6 1.2 1 2 .6.6-.4 1-1.2.6-2-.4-.4-1-.6-1.4-.6zM10.2 26.4c-.2 0-.6 0-.8-.2-.8-.2-1.6-.8-2-1.4-.4-.8-.6-1.6-.4-2.4.2-.8.8-1.6 1.4-2 1.6-.8 3.4-.4 4.4 1.2.8 1.6.4 3.4-1.2 4.4-.2.2-.8.4-1.4.4zm0-4.8c-.2 0-.4 0-.8.2-.6.4-1 1.2-.6 2 .4.6 1.2 1 2 .6.6-.4 1-1.2.6-2-.2-.4-.8-.8-1.2-.8z" fill="#05DDB3"/>
  <path d="M12.947 23.113l-.678 1.667 38.905 15.83.678-1.667-38.904-15.83zM53.6 26c-.2 0-.6 0-.8-.2-1.8-.4-2.8-2.2-2.2-4 .4-1.8 2.2-2.8 4-2.2 1.8.4 2.8 2.2 2.2 4C56.4 25 55 26 53.6 26zm-1.4-3.6c-.2.8.2 1.6 1 1.8.8.2 1.6-.2 1.8-1 .2-.8-.2-1.6-1-1.8-.4-.2-.8 0-1 .2-.2.2-.6.4-.8.8zM10.4 44.4c-.2 0-.6 0-.8-.2-1.8-.4-2.8-2.2-2.2-4 .2-.8.8-1.6 1.4-2 .6-.4 1.6-.6 2.4-.4.8.2 1.6.8 2 1.4.4.8.6 1.6.4 2.4-.6 1.8-1.8 2.8-3.2 2.8zm0-4.8c-.2 0-.4 0-.8.2s-.6.6-.6.8c-.2.8.2 1.6 1 1.8.4 0 .8 0 1-.2.4-.2.6-.6.6-.8.2-.8-.2-1.6-1-1.8h-.2z" fill="#05DDB3"/>
  <path d="M51.042 23.087l-38.698 16.32.7 1.66 38.698-16.322-.7-1.659zM41.2 56.8c-.2 0-.6 0-.8-.2-1.8-.4-2.8-2.2-2.2-4 .2-.8.8-1.6 1.4-2 .8-.4 1.6-.6 2.4-.4.8.2 1.6.8 2 1.4.4.8.6 1.6.4 2.4-.6 2-1.8 2.8-3.2 2.8zm0-4.6c-.2 0-.4 0-.8.2s-.6.6-.6.8c-.2.8.2 1.6 1 1.8.8.2 1.6-.2 1.8-1 .2-.8-.2-1.6-1-1.8h-.4zM22.8 13.4c-.2 0-.6 0-.8-.2-.8-.2-1.6-.8-2-1.4-.4-.8-.6-1.6-.4-2.4.4-1.8 2.2-2.8 4-2.2 1.8.4 2.8 2.2 2.2 4-.2 1.4-1.6 2.2-3 2.2zm0-4.6c-.2 0-.4 0-.8.2s-.6.6-.6.8c-.2.8.2 1.6 1 1.8.8.2 1.6-.2 1.8-1 .2-.8-.2-1.6-1-1.8h-.4z" fill="#05DDB3"/>
  <path d="M24.787 12.249l-1.659.7L39.445 51.65l1.659-.7L24.787 12.25zM40.8 13.4c-.2 0-.6 0-.8-.2-.8-.2-1.6-.8-2-1.4-.8-1.6-.4-3.4 1.2-4.4.8-.4 1.6-.6 2.4-.4.8.2 1.6.8 2 1.4.4.6.6 1.6.4 2.4-.2.8-.8 1.6-1.4 2-.6.4-1.2.6-1.8.6zm0-4.6c-.2 0-.4 0-.8.2-.6.4-1 1.2-.6 2 .4.6 1.2 1 2 .6.6-.4 1-1.2.6-2-.2-.6-.6-.8-1.2-.8zM23.2 57c-.2 0-.6 0-.8-.2-.8-.2-1.6-.8-2-1.4-.4-.8-.6-1.6-.4-2.4.2-.8.8-1.6 1.4-2 .8-.4 1.6-.6 2.4-.4.8.2 1.6.8 2 1.4.4.6.6 1.6.4 2.4-.2.8-.8 1.6-1.4 2-.6.4-1.2.6-1.6.6zm0-4.6c-.2 0-.4 0-.8.2-.6.4-1 1.2-.6 2 .4.6 1.2 1 2 .6.6-.4 1-1.2.6-2-.2-.6-.8-.8-1.2-.8z" fill="#05DDB3"/>
  <path d="M25 51.8l-1.8-.8L39 12.2l1.8.6-15.8 39z" fill="url(#paint40_linear)"/>
  <path d="M53.8 44c-.2 0-.6 0-.8-.2-.8-.2-1.6-.8-2-1.4-.4-.6-.6-1.6-.4-2.4.2-.8.8-1.6 1.4-2 .8-.4 1.6-.6 2.4-.4.8.2 1.6.8 2 1.4.4.6.6 1.6.4 2.4-.2.8-.8 1.6-1.4 2-.4.4-1 .6-1.6.6zm0-4.6c-.2 0-.4 0-.8.2s-.6.6-.6.8c0 .4 0 .8.2 1 .4.6 1.2 1 2 .6.6-.4 1-1.2.6-2-.4-.4-1-.6-1.4-.6zM10.2 26.4c-.2 0-.6 0-.8-.2-.8-.2-1.6-.8-2-1.4-.4-.8-.6-1.6-.4-2.4.2-.8.8-1.6 1.4-2 1.6-.8 3.4-.4 4.4 1.2.8 1.6.4 3.4-1.2 4.4-.2.2-.8.4-1.4.4zm0-4.8c-.2 0-.4 0-.8.2-.6.4-1 1.2-.6 2 .4.6 1.2 1 2 .6.6-.4 1-1.2.6-2-.2-.4-.8-.8-1.2-.8z" fill="#05DDB3"/>
  <path d="M51 40.6L12.2 24.8l.6-1.6 39 15.8-.8 1.6z" fill="url(#paint41_linear)"/>
  <path d="M53.6 26c-.2 0-.6 0-.8-.2-1.8-.4-2.8-2.2-2.2-4 .4-1.8 2.2-2.8 4-2.2 1.8.4 2.8 2.2 2.2 4C56.4 25 55 26 53.6 26zm-1.4-3.6c-.2.8.2 1.6 1 1.8.8.2 1.6-.2 1.8-1 .2-.8-.2-1.6-1-1.8-.4-.2-.8 0-1 .2-.2.2-.6.4-.8.8zM10.4 44.4c-.2 0-.6 0-.8-.2-1.8-.4-2.8-2.2-2.2-4 .2-.8.8-1.6 1.4-2 .6-.4 1.6-.6 2.4-.4.8.2 1.6.8 2 1.4.4.8.6 1.6.4 2.4-.6 1.8-1.8 2.8-3.2 2.8zm0-4.8c-.2 0-.4 0-.8.2s-.6.6-.6.8c-.2.8.2 1.6 1 1.8.4 0 .8 0 1-.2.4-.2.6-.6.6-.8.2-.8-.2-1.6-1-1.8h-.2z" fill="#05DDB3"/>
  <path d="M13 41l-.6-1.6L51 23l.6 1.6L13 41z" fill="url(#paint42_linear)"/>
  <path d="M41.2 56.8c-.2 0-.6 0-.8-.2-1.8-.4-2.8-2.2-2.2-4 .2-.8.8-1.6 1.4-2 .8-.4 1.6-.6 2.4-.4.8.2 1.6.8 2 1.4.4.8.6 1.6.4 2.4-.6 2-1.8 2.8-3.2 2.8zm0-4.6c-.2 0-.4 0-.8.2s-.6.6-.6.8c-.2.8.2 1.6 1 1.8.8.2 1.6-.2 1.8-1 .2-.8-.2-1.6-1-1.8h-.4zM22.8 13.4c-.2 0-.6 0-.8-.2-.8-.2-1.6-.8-2-1.4-.4-.8-.6-1.6-.4-2.4.4-1.8 2.2-2.8 4-2.2 1.8.4 2.8 2.2 2.2 4-.2 1.4-1.6 2.2-3 2.2zm0-4.6c-.2 0-.4 0-.8.2s-.6.6-.6.8c-.2.8.2 1.6 1 1.8.8.2 1.6-.2 1.8-1 .2-.8-.2-1.6-1-1.8h-.4z" fill="#05DDB3"/>
  <path d="M39.4 51.6L23 13l1.6-.8L41 51l-1.6.6z" fill="url(#paint43_linear)"/>
  <path d="M32 16.2c-3.4 0-6.6 2.4-6.6 7.4S28.6 31 32 31c3.4 0 6.6-2.4 6.6-7.4s-3.2-7.4-6.6-7.4z" fill="#fff"/>
  <path d="M32 33.4c-6.6 0-13.8 3-13.8 8.6 0 2 6.2 4 13.8 4 7.6 0 13.8-1.8 13.8-4 0-5.6-7.2-8.6-13.8-8.6z" fill="url(#paint44_linear)"/>
  <defs>
    <linearGradient id="paint40_linear" x1="23.273" y1="31.993" x2="40.711" y2="31.993" gradientUnits="userSpaceOnUse">
      <stop stop-color="#05DDB3"/>
      <stop offset=".326" stop-color="#00CEAB"/>
      <stop offset=".636" stop-color="#00CEAB"/>
      <stop offset="1" stop-color="#05DDB3"/>
    </linearGradient>
    <linearGradient id="paint41_linear" x1="12.223" y1="31.965" x2="51.738" y2="31.965" gradientUnits="userSpaceOnUse">
      <stop stop-color="#05DDB3"/>
      <stop offset=".326" stop-color="#00CEAB"/>
      <stop offset=".636" stop-color="#00CEAB"/>
      <stop offset="1" stop-color="#05DDB3"/>
    </linearGradient>
    <linearGradient id="paint42_linear" x1="12.312" y1="31.981" x2="51.648" y2="31.981" gradientUnits="userSpaceOnUse">
      <stop stop-color="#05DDB3"/>
      <stop offset=".326" stop-color="#00CEAB"/>
      <stop offset=".636" stop-color="#00CEAB"/>
      <stop offset="1" stop-color="#05DDB3"/>
    </linearGradient>
    <linearGradient id="paint43_linear" x1="23.035" y1="31.953" x2="40.95" y2="31.953" gradientUnits="userSpaceOnUse">
      <stop stop-color="#05DDB3"/>
      <stop offset=".326" stop-color="#00CEAB"/>
      <stop offset=".636" stop-color="#00CEAB"/>
      <stop offset="1" stop-color="#05DDB3"/>
    </linearGradient>
    <linearGradient id="paint44_linear" x1="32.001" y1="34.393" x2="32.001" y2="45.636" gradientUnits="userSpaceOnUse">
      <stop stop-color="#BAFFF1"/>
      <stop offset=".016" stop-color="#BEFFF2"/>
      <stop offset=".127" stop-color="#D6FFF7"/>
      <stop offset=".253" stop-color="#E8FFFA"/>
      <stop offset=".403" stop-color="#F5FFFD"/>
      <stop offset=".597" stop-color="#FDFFFF"/>
      <stop offset="1" stop-color="#fff"/>
    </linearGradient>
  </defs>
</svg>