<svg width="64" height="64" fill="none" xmlns="http://www.w3.org/2000/svg">
  <path d="M64 32c0 14-2.4 22.2-8.2 26.8-5 4-12.8 5.2-23.8 5.2-12.6 0-20.8-1.6-25.8-7.2C1.8 52 0 44.2 0 32 0 19 2 11 7 6.4 12 1.4 20 0 32 0c11.8 0 19.8 1.4 24.8 6.2C62 10.8 64 18.8 64 32z" fill="#104784"/>
  <path d="M32 53.4c-11.6 0-21.2-9.4-21.2-21.2 0-11.8 9.6-21 21.2-21s21.2 9.4 21.2 21.2c0 11.8-9.6 21-21.2 21zm0-39.8c-10.4 0-18.8 8.4-18.8 18.8S21.6 51.2 32 51.2s18.8-8.4 18.8-18.8S42.4 13.6 32 13.6z" fill="#1D5E99"/>
  <path d="M29.8 30.2V9.8c0-1.2 1-2.2 2.2-2.2 1.2 0 2.2 1 2.2 2.2v20.4c0 1.2-1 2.2-2.2 2.2-1.2 0-2.2-1-2.2-2.2z" fill="url(#paint0_linear)"/>
  <path d="M52.4 41.8L33 30.6c-1-.6-2.4-.2-3 .8-.6 1-.2 2.2.8 2.8l19.4 11.2c1 .6 2.4.2 3-.8.6-.8.2-2.2-.8-2.8z" fill="url(#paint1_linear)"/>
  <path d="M11.6 41.8L31 30.6c1-.6 2.4-.2 3 .8.6 1 .2 2.2-.8 2.8L13.8 45.4c-1 .6-2.4.2-3-.8-.6-.8-.2-2.2.8-2.8z" fill="url(#paint2_linear)"/>
  <path d="M32 22.6c-5.4 0-9.8 4.4-9.8 9.8s4.4 9.8 9.8 9.8 9.8-4.4 9.8-9.8-4.4-9.8-9.8-9.8z" fill="#fff"/>
  <defs>
    <linearGradient id="paint0_linear" x1="32" y1="23.484" x2="32" y2="8.111" gradientUnits="userSpaceOnUse">
      <stop stop-color="#8AA9BE"/>
      <stop offset="1" stop-color="#DFF1FB"/>
    </linearGradient>
    <linearGradient id="paint1_linear" x1="39.871" y1="37.02" x2="53.182" y2="44.726" gradientUnits="userSpaceOnUse">
      <stop stop-color="#8AA9BE"/>
      <stop offset="1" stop-color="#DFF1FB"/>
    </linearGradient>
    <linearGradient id="paint2_linear" x1="24.045" y1="37.099" x2="10.734" y2="44.572" gradientUnits="userSpaceOnUse">
      <stop stop-color="#8AA9BE"/>
      <stop offset="1" stop-color="#DFF1FB"/>
    </linearGradient>
  </defs>
</svg>