<svg xmlns="http://www.w3.org/2000/svg" viewBox="0 0 362.428 362.428">
  <path d="M310.052 195.37c-24.766.808-43.446-12.629-66.148-18.752-28.578-7.707-60.158-1.162-83.95 16.094a130.239 130.239 0 001.434-13.523c2.517-47.764-18.483-91.063-43.759-129.961.834 6.719 1.99 13.477 2.4 20.238.992 16.303-6.142 31.16-17.178 42.77-16.178 16.535-37.527 21.025-56.412 32.715C8.86 168.21-10.142 218.085 5.495 260.306c10.052 26.066 14.886 32.566 14.886 32.566s24.685 8.209 71.602-11.02c14.798-6.065 26.96-15.76 26.96-15.76 6.817 6.873 28.604 28.779 58.329 39.633 41.707 15.23 86.281 6.807 120.248-21.818 36.575-30.822 53.807-75.758 64.907-120.797-14.457 17.366-27.884 31.459-52.375 32.26zM33.003 267.663c27.562-29.73 50.522-59.1 66.182-96.658.628 39.311-30.82 81.25-66.182 96.658zm112.174-16.939c40.545-.227 77.665-3.549 115.784-17.805-28.283 27.367-80.341 33.09-115.784 17.805z" fill="#c0cfb2" opacity=".25"/>
</svg>