<svg xmlns="http://www.w3.org/2000/svg" viewBox="0 0 512 512">
  <path d="M235.85 134.452c-6.381 0-11.554-5.174-11.554-11.554 0-10.617 4.55-16.512 7.559-20.414 2.164-2.805 2.745-3.558 2.745-6.296 0-2.738-.581-3.491-2.746-6.297-3.01-3.902-7.559-9.796-7.559-20.413 0-10.615 4.55-16.511 7.559-20.412 2.164-2.805 2.745-3.557 2.745-6.294 0-6.38 5.173-11.554 11.554-11.554s11.554 5.174 11.554 11.554c0 10.615-4.55 16.511-7.559 20.412-2.164 2.805-2.745 3.557-2.745 6.294 0 2.737.581 3.49 2.745 6.296 3.011 3.902 7.559 9.796 7.559 20.414s-4.55 16.511-7.559 20.413c-2.165 2.805-2.746 3.558-2.746 6.297.002 6.381-5.171 11.554-11.552 11.554zM288.278 157.84c-6.381 0-11.554-5.174-11.554-11.554 0-10.615 4.549-16.511 7.558-20.413 2.165-2.805 2.746-3.558 2.746-6.297 0-2.737-.581-3.491-2.745-6.296-3.01-3.902-7.559-9.796-7.559-20.414 0-10.615 4.55-16.51 7.559-20.41 2.164-2.804 2.745-3.557 2.745-6.294 0-6.38 5.173-11.554 11.554-11.554s11.554 5.174 11.554 11.554c0 10.617-4.55 16.511-7.559 20.412-2.164 2.804-2.745 3.557-2.745 6.293 0 2.738.581 3.491 2.746 6.297 3.01 3.902 7.558 9.796 7.558 20.413s-4.55 16.512-7.559 20.414c-2.164 2.805-2.745 3.558-2.745 6.296 0 6.381-5.174 11.553-11.554 11.553z" fill="#ffffff"/>
  <path d="M381.899 469.226H155.843c-25.886 0-46.872-20.985-46.872-46.872V183.941h319.798v238.414c.001 25.886-20.985 46.871-46.87 46.871z" fill="#ffffff"/>
  <path fill="#ffc674" d="M341.715 188.62l-50.95 44.504.211 72.01h101.478l.211-72.01z"/>
  <path d="M252.074 440.499c-38.691 38.691-113.935 26.173-113.935 26.173s-12.516-75.246 26.173-113.935 113.935-26.173 113.935-26.173 12.517 75.244-26.173 113.935z" fill="#a5ba6b"/>
  <path d="M39.692 440.499c38.691 38.691 113.935 26.173 113.935 26.173s12.516-75.246-26.173-113.935-113.937-26.173-113.937-26.173-12.516 75.244 26.175 113.935z" fill="#e0e381"/>
  <path d="M467.755 212.87h-27.432v-28.929c0-6.38-5.173-11.554-11.554-11.554H108.973c-6.381 0-11.554 5.174-11.554 11.554v137.578c-39.695-13.702-83.343-6.762-85.797-6.353a11.554 11.554 0 00-9.502 9.502c-.551 3.311-13.004 81.596 29.4 124.001 26.361 26.361 66.583 31.523 94.045 31.522 6.94 0 26.037.589 30.277.589h226.056c32.216 0 58.425-26.209 58.425-58.424v-68.009h27.432c24.396 0 44.244-19.848 44.244-44.244v-52.987c.001-24.398-19.847-44.246-44.244-44.246zM143.209 456.273c-19.635 1.757-68.414 2.991-95.348-23.945-26.844-26.844-25.658-75.723-23.926-95.366 19.636-1.76 68.413-2.99 95.348 23.945 26.845 26.843 25.658 75.723 23.926 95.366zm100.695-23.945c-20.592 20.593-54.148 24.691-77.53 24.7 1.37-16.235 2.023-46.879-8.063-75.293 3.518-7.655 8.134-14.792 14.17-20.829 26.845-26.842 75.723-25.659 95.366-23.926 1.762 19.633 2.994 68.412-23.943 95.348zm173.313-9.974c0 19.474-15.843 35.317-35.318 35.317H249.644a86.857 86.857 0 0010.599-9.004c10.752-10.752 17.973-23.811 22.759-37.37h57.693c6.381 0 11.554-5.174 11.554-11.554s-5.173-11.554-11.554-11.554h-51.723c5.665-32.234 1.005-61.526.672-63.524a11.553 11.553 0 00-9.502-9.502c-3.311-.552-81.596-13.004-124.001 29.4-3.861 3.861-7.251 8.029-10.25 12.403-3.003-4.375-6.406-8.539-10.27-12.403-4.649-4.649-9.73-8.639-15.096-12.057V195.494h195.758l-33.118 28.929a11.548 11.548 0 00-3.952 8.736l.211 72.009c.018 6.368 5.186 11.52 11.554 11.52h101.478c6.367 0 11.535-5.152 11.554-11.52l.21-72.009a11.564 11.564 0 00-3.952-8.736l-33.118-28.929h50.068v226.86h-.001zm-75.502-218.393l39.38 34.398-.162 55.22h-78.439l-.162-55.22 39.383-34.398zm147.178 106.14c0 11.655-9.482 21.137-21.137 21.137h-27.432v-95.261h27.432c11.655 0 21.137 9.482 21.137 21.137v52.987z" fill="#ffffff"/>
</svg>